<?xml version="1.0" encoding="UTF-8" standalone="no"?>
<svg
   version="1.1"
   width="328"
   height="328"
   viewBox="0,0,328,328"
   id="svg989"
   sodipodi:docname="metw.svg"
   inkscape:version="1.1.2 (0a00cf5339, 2022-02-04)"
   xmlns:inkscape="http://www.inkscape.org/namespaces/inkscape"
   xmlns:sodipodi="http://sodipodi.sourceforge.net/DTD/sodipodi-0.dtd"
   xmlns="http://www.w3.org/2000/svg"
   xmlns:svg="http://www.w3.org/2000/svg">
  <defs
     id="defs993" />
  <sodipodi:namedview
     id="namedview991"
     pagecolor="#ffffff"
     bordercolor="#999999"
     borderopacity="1"
     inkscape:pageshadow="0"
     inkscape:pageopacity="0"
     inkscape:pagecheckerboard="0"
     showgrid="false"
     inkscape:zoom="2.1920732"
     inkscape:cx="164"
     inkscape:cy="164"
     inkscape:window-width="1916"
     inkscape:window-height="1031"
     inkscape:window-x="0"
     inkscape:window-y="25"
     inkscape:window-maximized="1"
     inkscape:current-layer="svg989" />
  <path
     d="m 281.465,77.49 v 177.25667 c 0,0.75167 -0.88833,1.16167 -1.50333,0.75167 L 232.88,222.76667 c -0.27333,-0.13667 -0.41,-0.41 -0.41,-0.75167 V 141.86 c 0,-0.41 -0.47833,-0.615 -0.75167,-0.34167 L 164.54666,198.85 c -0.34167,0.27333 -0.88833,0.27333 -1.23,0 L 96.14499,141.51833 c -0.27333,-0.27333 -0.75167,-0.0683 -0.75167,0.34167 v 80.155 c 0,0.27333 -0.13667,0.54667 -0.41,0.75167 L 47.96999,255.43 c -0.68333,0.47833 -1.50333,0 -1.50333,-0.75167 V 77.49 c 0,-0.34167 0.13667,-0.54667 0.34167,-0.75167 L 70.315,56.44333 c 0.34167,-0.27333 0.88833,-0.27333 1.23,0 l 91.84,78.105 c 0.34167,0.27333 0.88833,0.27333 1.23,0 l 91.84,-78.03667 c 0.34167,-0.27333 0.88833,-0.27333 1.23,0 l 23.50667,20.295 c 0.205,0.13667 0.34167,0.41 0.27333,0.68333 z"
     fill="#000000"
     id="path983"
     style="mix-blend-mode:normal;fill-rule:nonzero;stroke:none;stroke-width:1;stroke-linecap:butt;stroke-linejoin:miter;stroke-miterlimit:10;stroke-dasharray:none;stroke-dashoffset:0;fill:#dddddd;fill-opacity:1" />
</svg>
